<svg width="830" height="1439" viewBox="0 0 830 1439" fill="none" xmlns="http://www.w3.org/2000/svg">
<g clip-path="url(#clip0_147_3283)">
<path d="M1004 1436.38C1004 1436.72 1003.94 1437.06 1003.82 1437.38C1003.71 1437.7 1003.54 1437.99 1003.32 1438.23C1003.1 1438.48 1002.85 1438.67 1002.56 1438.8C1002.28 1438.93 1001.98 1439 1001.67 1439H-240.673C-241.29 1439 -241.882 1438.72 -242.318 1438.23C-242.755 1437.74 -243 1437.07 -243 1436.38C-243 1435.68 -242.755 1435.01 -242.318 1434.52C-241.882 1434.03 -241.29 1433.75 -240.673 1433.75H1001.67C1001.98 1433.75 1002.28 1433.82 1002.56 1433.95C1002.85 1434.08 1003.1 1434.27 1003.32 1434.52C1003.54 1434.76 1003.71 1435.05 1003.82 1435.37C1003.94 1435.69 1004 1436.03 1004 1436.38Z" fill="#CCCCCC"/>
<path d="M768.211 65.0129C766.678 55.3853 762.883 46.398 757.221 38.9879C749.169 28.6522 739.391 20.2064 728.445 14.1328C717.498 8.05914 705.598 4.47666 693.425 3.58988C681.251 2.7031 669.041 4.52937 657.493 8.96444C645.945 13.3995 635.285 20.3565 626.121 29.4382L625.338 30.2322C614.4 18.2739 601.066 9.46616 586.467 4.55533C571.869 -0.355508 556.436 -1.22464 541.476 2.0216C526.516 5.26784 512.471 12.5338 500.53 23.2036C488.59 33.8733 479.106 47.6325 472.883 63.3148C467.165 77.6657 464.543 93.3406 465.233 109.055C465.923 124.769 469.905 140.075 476.853 153.719C479.969 159.87 483.632 165.649 487.785 170.966C492.067 176.479 607.68 321.536 608.833 322.991C608.971 323.172 609.142 323.317 609.335 323.416C609.527 323.515 609.737 323.566 609.948 323.565C609.987 323.565 610.046 323.543 610.104 323.543C610.186 323.542 610.267 323.519 610.339 323.477C610.721 323.372 611.051 323.103 611.258 322.727L611.865 321.602L612.588 320.212L623.285 300.054C652.951 244.144 692.942 191.389 742.163 143.264C745.333 140.161 748.269 136.767 750.944 133.119C761.475 118.919 767.831 101.376 769.13 82.9218C769.502 76.9324 769.193 70.9139 768.211 65.0129Z" fill="#A0DC62"/>
<path d="M237.793 1198.99L259.566 1119.02C233.369 1086.5 200.529 1061.68 163.898 1046.73C199.686 1113.6 165.008 1200.83 179.459 1277.21C184.128 1301 193.483 1323.29 206.831 1342.45C220.178 1361.6 237.177 1377.12 256.566 1387.86L289.607 1434.03C306.928 1399.9 317.483 1361.94 320.544 1322.76C323.605 1283.59 319.099 1244.13 307.337 1207.11C300.556 1186.41 291.491 1166.77 280.357 1148.62C260.722 1174.66 237.793 1198.99 237.793 1198.99Z" fill="#F2F2F2"/>
<path d="M118.071 1209.21L105.934 1126.68C69.6278 1110.75 30.4224 1105.06 -8.27734 1110.1C50.1966 1151.94 53.6521 1247.46 96.7924 1308.56C110.377 1327.5 127.566 1342.75 147.087 1353.18C166.608 1363.61 187.959 1368.95 209.559 1368.81L257.39 1393.52C259.397 1354.26 253.833 1314.97 241.082 1278.37C228.33 1241.77 208.694 1208.72 183.527 1181.5C169.274 1166.38 153.391 1153.36 136.251 1142.72C128.972 1175.9 118.071 1209.21 118.071 1209.21Z" fill="#F2F2F2"/>
<path d="M357.101 667.996L351.09 683.765L360.915 739.776L461.147 724.057L460.347 655.762L458.335 640.802L357.101 667.996Z" fill="#FFB6B6"/>
<path d="M305.316 1393.89H327.43L337.953 1297.7H305.316V1393.89Z" fill="#FFB6B6"/>
<path d="M367.013 1417.67L333.436 1391.51V1374.42L329.533 1374.7L305.316 1376.33L298.108 1376.8L293.65 1437.1H309.507L312.324 1420.22L319.576 1437.1H361.646C363.661 1437.1 365.623 1436.37 367.246 1435.03C368.868 1433.68 370.066 1431.78 370.666 1429.61C371.265 1427.44 371.234 1425.11 370.577 1422.97C369.919 1420.82 368.671 1418.96 367.013 1417.67Z" fill="#444256"/>
<path d="M429.53 1393.89H451.643L464.651 1252.27L423.1 1249.47L429.53 1393.89Z" fill="#FFB6B6"/>
<path d="M491.228 1417.67L457.651 1391.51V1374.42L453.393 1374.7L428.754 1376.38L422.323 1376.8L417.865 1437.1H433.722L436.538 1420.22L443.79 1437.1H485.86C487.876 1437.1 489.838 1436.37 491.46 1435.03C493.083 1433.68 494.281 1431.78 494.88 1429.61C495.48 1427.44 495.448 1425.11 494.791 1422.97C494.134 1420.82 492.885 1418.96 491.228 1417.67Z" fill="#444256"/>
<path d="M295.931 1310.94H296.017L300.27 1154.53C297.517 1148.54 296.121 1141.88 296.204 1135.13C296.287 1128.39 297.847 1121.77 300.745 1115.88L301.354 1114.63L299.776 1106.38C297.748 1095.78 298.678 1084.72 302.439 1074.74L306.407 928.837C292.233 825.235 359.783 757.67 359.783 757.67L353.574 703.37L462.832 706.17L460.973 757.67L482.698 841.85C494.131 967.475 494.811 1090.55 483.115 1210.68C483.091 1211.03 483.137 1211.37 483.248 1211.69C484.435 1215.76 484.853 1220.07 484.475 1224.33C484.096 1228.59 482.931 1232.72 481.052 1236.44C480.565 1237.39 480.23 1238.43 480.063 1239.52C477.653 1260.58 477.34 1233.94 474.146 1254.81L474.768 1255.16C477.005 1256.03 477.964 1259.53 476.911 1262.97C475.859 1266.41 473.191 1268.5 470.954 1267.62L412.548 1268.33C410.31 1267.46 409.35 1263.96 410.404 1260.52C411.457 1257.08 414.124 1255 416.361 1255.87L419.995 1257.94L413.916 1235.51L411.785 1233.27C410.764 1232.19 409.972 1230.87 409.467 1229.4C408.963 1227.93 408.76 1226.35 408.874 1224.78C408.987 1223.21 409.413 1221.69 410.122 1220.33C410.83 1218.98 411.801 1217.82 412.962 1216.94L414.729 1151.82L415.589 1124.25L413.817 1092.97L405.626 952.294L374.62 1125.29L342.949 1312.68C343.688 1313.43 344.243 1314.38 344.561 1315.45C344.879 1316.51 344.95 1317.65 344.766 1318.75C344.474 1320.29 343.717 1321.67 342.623 1322.65C341.529 1323.63 340.167 1324.15 338.771 1324.12H295.776C294.875 1324.12 293.986 1323.88 293.178 1323.43C292.371 1322.98 291.667 1322.32 291.121 1321.51C290.575 1320.7 290.203 1319.76 290.032 1318.77C289.861 1317.77 289.897 1316.74 290.137 1315.76C290.499 1314.35 291.263 1313.11 292.31 1312.24C293.358 1311.37 294.63 1310.91 295.931 1310.94Z" fill="#444256"/>
<path d="M334.164 401.848C334.161 411.834 336.331 421.669 340.485 430.488C344.638 439.307 350.648 446.842 357.986 452.431C365.324 458.019 373.767 461.491 382.572 462.54C391.377 463.59 400.277 462.186 408.489 458.451C416.701 454.716 423.974 448.765 429.671 441.12C435.367 433.475 439.313 424.369 441.161 414.603C443.009 404.836 442.702 394.708 440.269 385.106C437.836 375.504 433.35 366.723 427.205 359.533L426.946 359.24C426.513 358.727 426.08 358.215 425.626 357.727C425.623 357.727 425.62 357.726 425.617 357.725C425.615 357.724 425.612 357.722 425.61 357.72C425.608 357.717 425.607 357.715 425.606 357.712C425.605 357.709 425.604 357.706 425.604 357.702C424.984 357.192 424.411 356.611 423.895 355.97C416.593 344.461 408.313 334.811 388.258 340.84C359.385 349.52 334.164 368.147 334.164 401.848Z" fill="#2F2E41"/>
<path d="M631.312 375.731C631.435 378.995 630.921 382.25 629.808 385.266C628.694 388.282 627.008 390.986 624.868 393.188C622.728 395.389 620.186 397.035 617.421 398.008C614.655 398.982 611.735 399.26 608.864 398.823L469.359 527.948L448.051 485.708L591.88 372.065C592.85 366.674 595.541 361.873 599.441 358.57C603.341 355.267 608.179 353.693 613.04 354.145C617.9 354.597 622.445 357.044 625.813 361.022C629.18 365.001 631.137 370.234 631.312 375.731V375.731Z" fill="#FFB6B6"/>
<path d="M410.454 566.028C410.454 566.028 414.998 576.663 432.674 561.557C446.824 549.463 514.378 497.284 529.385 475.228C532.533 476.832 536.065 477.21 539.425 476.301C542.785 475.392 545.781 473.248 547.942 470.208L511.033 430.13C499.451 431.012 499.333 439.753 500.325 444.772L470.663 458.065L393.406 508.124L407.048 558.407L410.454 566.028Z" fill="#E6E6E6"/>
<path d="M401.585 467.121C426.636 467.121 446.945 444.217 446.945 415.963C446.945 387.71 426.636 364.806 401.585 364.806C376.533 364.806 356.225 387.71 356.225 415.963C356.225 444.217 376.533 467.121 401.585 467.121Z" fill="#FFB7B7"/>
<path d="M463.462 669.716L463.928 641.177C465.768 638.326 481.204 613.439 477.744 588.578C476.125 576.872 470.492 567.042 461.044 559.389L454.946 543.381L445.919 519.72L419.506 501.987L415.847 493.583L412.831 486.604L376.394 482.502L367.412 496.134L367.235 496.159C358.981 498.274 351.228 502.369 344.503 508.165C337.12 514.483 331.134 522.644 327.017 532.009C322.9 541.374 320.763 551.687 320.773 562.14L320.995 595.306L321.04 600.058L321.062 604.66L343.793 673.668L344.658 676.344L353.574 703.382L352.043 706.233C350.396 709.336 349.787 713.001 350.328 716.566C350.869 720.131 352.524 723.359 354.993 725.667L356.058 742.575L357.987 741.975L368.965 738.524L451.996 712.386C455.123 711.401 457.884 709.305 459.869 706.408C459.941 706.304 460.007 706.195 460.068 706.083C460.397 705.623 460.687 705.129 460.933 704.607C462.819 699.23 463.018 697.779 463.04 696.278C465.797 692.737 467.389 688.234 467.551 683.525C467.712 678.816 466.433 674.187 463.927 670.416L463.462 669.716Z" fill="#E6E6E6"/>
<path d="M354.114 429.375C354.525 429.301 354.937 429.204 355.348 429.13C362.423 427.715 369.499 426.324 376.552 424.884L377.202 406.851L385.748 423.005C405.244 430.302 423.484 426.178 440.643 417.075C446.303 414.045 451.794 410.631 457.087 406.851C458.83 376.351 447.897 356.826 427.552 358.874C426.809 358.949 426.276 358.093 425.626 357.727C425.624 357.727 425.621 357.726 425.618 357.725C425.615 357.724 425.613 357.722 425.611 357.72C425.609 357.717 425.607 357.715 425.606 357.712C425.605 357.709 425.605 357.706 425.605 357.702C424.501 357.117 423.376 356.555 422.251 356.043C413.442 352.161 403.837 351.177 394.553 353.208C385.268 355.238 376.685 360.198 369.802 367.512C355.954 382.423 349.722 407.046 354.114 429.375Z" fill="#2F2E41"/>
<path d="M383.669 342.311C383.215 344.074 382.318 345.65 381.086 346.849C379.854 348.047 378.34 348.817 376.727 349.064C370.629 357.568 363.643 366.573 354.084 368.273C351.352 368.927 348.502 368.372 346.123 366.723C345.833 366.517 345.565 366.273 345.324 365.997C343.062 363.571 342.885 358.694 345.568 356.868C333.548 362.246 326.518 376.877 324.744 391.309C322.97 405.741 325.431 420.323 327.05 434.78C328.669 449.237 329.379 464.419 324.345 477.85C318.401 493.683 304.74 505.063 289.837 508.69C288.506 509.015 287.176 509.29 285.823 509.465C284.924 502.6 282.665 496.051 279.214 490.306C280.127 496.955 279.586 503.755 277.64 510.115C266.433 509.94 255.427 506.732 245.549 500.761C232.043 492.732 220.799 480.476 211.596 466.745C227.452 479.426 249.364 484.178 266.617 474.148C282.053 465.144 291.168 446.235 295.159 427.176C299.151 408.092 282.373 384.711 284.191 365.227C286.032 345.742 306.869 329.205 318.268 314.423C325.542 304.993 336.276 298.015 347.343 299.191C351.08 299.592 354.696 300.898 357.946 303.018C361.196 305.138 364.002 308.023 366.174 311.477C368.346 314.93 369.833 318.871 370.532 323.031C371.232 327.191 371.129 331.472 370.23 335.583C373.379 330.555 381.518 331.656 383.536 337.384C384.077 338.961 384.124 340.7 383.669 342.311Z" fill="#2F2E41"/>
<path d="M355.348 429.13C355.348 429.13 368.785 372.564 426.384 359.508C426.448 359.484 426.665 359.386 426.946 359.24C427.119 359.118 427.336 358.996 427.552 358.874C426.903 358.459 426.276 358.093 425.626 357.727C425.623 357.727 425.621 357.726 425.618 357.725C425.615 357.724 425.613 357.722 425.611 357.72C425.609 357.717 425.607 357.715 425.606 357.712C425.605 357.709 425.605 357.706 425.605 357.702C425.042 357.117 424.48 356.531 423.895 355.97L422.251 356.043C422.251 356.043 364.457 345.721 355.348 429.13Z" fill="#F5DA45"/>
<path d="M499.902 698.694C499.387 697.222 498.523 695.938 497.404 694.982C496.285 694.027 494.955 693.437 493.559 693.276C490.761 693.003 487.945 693.462 485.33 694.62C475.071 698.474 465.859 705.229 458.573 714.239L458.697 719.965C455.275 724.887 453.449 730.981 453.522 737.235C453.594 743.489 455.561 749.527 459.095 754.346C461.091 757.12 463.815 759.109 466.876 760.027C468.406 760.457 470.01 760.413 471.52 759.9C473.029 759.387 474.388 758.423 475.452 757.111C478.518 752.9 477.036 746.555 474.782 741.736C470.848 733.351 465.09 726.231 458.048 721.043C469.806 720.705 481.355 717.467 491.885 711.557C494.218 710.406 496.323 708.74 498.076 706.657C498.942 705.605 499.563 704.326 499.882 702.936C500.2 701.546 500.207 700.088 499.902 698.694Z" fill="#444256"/>
<path d="M710.729 1035.6L688.779 1036.58C683.29 1048.02 680.362 1060.8 680.248 1073.81C693.307 1055.98 718.321 1058.35 735.831 1046.31C741.266 1042.51 745.873 1037.37 749.31 1031.29C752.747 1025.2 754.926 1018.32 755.685 1011.16L763.885 996.22C753.73 994.108 743.289 994.503 733.283 997.38C723.276 1000.26 713.941 1005.55 705.922 1012.88C701.459 1017.05 697.479 1021.83 694.076 1027.12C702.452 1030.76 710.729 1035.6 710.729 1035.6Z" fill="#F2F2F2"/>
<path d="M601.217 1304.67L579.267 1305.65C573.778 1317.09 570.85 1329.88 570.736 1342.89C583.795 1325.05 608.809 1327.43 626.319 1315.38C631.754 1311.58 636.361 1306.44 639.798 1300.36C643.235 1294.28 645.414 1287.4 646.173 1280.23L654.373 1265.29C644.218 1263.18 633.778 1263.58 623.771 1266.45C613.764 1269.33 604.43 1274.62 596.41 1281.95C591.947 1286.12 587.967 1290.9 584.564 1296.19C592.94 1299.83 601.217 1304.67 601.217 1304.67Z" fill="#F2F2F2"/>
<path d="M83.8979 923.697L65.2929 910.524C55.0325 916.474 46.2147 925.158 39.6055 935.822C59.3138 929.421 78.7668 947.315 99.2479 948.528C105.638 948.851 112.011 947.548 117.895 944.716C123.778 941.883 129.021 937.594 133.234 932.166L147.483 925.059C140.16 916.848 131.346 910.524 121.648 906.524C111.949 902.525 101.597 900.944 91.305 901.891C85.5357 902.486 79.8558 903.899 74.3995 906.095C79.491 914.43 83.8979 923.697 83.8979 923.697Z" fill="#F2F2F2"/>
<path d="M632.109 349.152C631.671 345.837 634.86 343.474 636.053 340.404C636.819 337.665 636.819 334.725 636.052 331.986C635.364 328.265 634.57 324.317 632.181 321.635C629.74 319.322 626.732 317.9 623.558 317.558C615.841 316.039 607.962 315.882 600.203 317.092L606.089 317.496C602.382 317.229 598.663 317.716 595.109 318.933C593.337 319.564 591.734 320.687 590.447 322.199C589.16 323.711 588.23 325.563 587.743 327.585C587.015 331.683 589.499 336.482 593.192 336.833C591.348 336.409 589.43 336.826 587.858 337.992C586.286 339.158 585.187 340.978 584.801 343.055C584.415 345.132 584.774 347.297 585.799 349.077C586.824 350.857 588.432 352.106 590.271 352.553C589.422 355.143 586.895 356.383 584.731 357.674C582.567 358.966 580.291 361.182 580.656 363.912C581.139 367.521 585.416 368.263 588.65 368.104L623.856 366.371C626.887 366.493 629.9 365.788 632.637 364.315C635.247 362.598 637.067 358.836 635.861 355.712C634.93 353.298 632.453 351.755 632.109 349.152Z" fill="#3F3D56"/>
<path d="M223.806 702.784C218.967 726.758 216.668 753.937 229.573 775.39C235.058 784.593 243.108 791.471 252.449 794.935C261.903 798.096 271.872 798.787 281.599 796.954C303.61 793.515 323.172 780.584 344.818 775.564C354.371 773.349 364.509 772.616 373.705 776.88C380.596 780.075 387.853 786.498 387.886 795.659C387.92 805.068 380.675 811.312 373.469 814.205C363.854 818.065 353.862 816.571 343.89 816.084C333.149 815.56 322.197 816.656 313.274 824.074C305.599 830.83 299.714 839.829 296.258 850.093C291.773 862.369 289.952 875.568 287.085 888.376C284.521 899.891 280.895 911.072 276.266 921.735C267.182 942.636 254.449 961.251 238.829 976.464C231.126 983.941 221.765 991.559 211.245 992.244C203.13 992.773 193.266 988.927 190.138 979.657C188.976 975.655 189.09 971.321 190.46 967.403C191.829 963.485 194.369 960.23 197.641 958.199C204.595 954.242 212.169 959.888 214.415 967.637C215.004 969.423 215.21 971.341 215.016 973.234C214.822 975.128 214.233 976.942 213.299 978.53C211.19 982.076 216.27 985.392 218.364 981.87C223.228 973.691 220.686 962.692 214.73 956.14C211.824 952.799 207.94 950.765 203.802 950.417C199.664 950.07 195.555 951.432 192.243 954.25C188.801 957.206 186.199 961.23 184.756 965.829C183.314 970.429 183.093 975.403 184.121 980.142C186.623 990.324 195.494 996.8 204.353 998.405C215.292 1000.39 225.82 995.537 234.651 988.532C243.511 981.319 251.567 972.927 258.644 963.537C273.032 944.875 283.848 923.064 290.415 899.469C296.872 876.132 297.342 845.303 316.529 829.543C326.402 821.433 338.5 822.332 350.076 823.077C360.295 823.734 370.264 823.614 379.639 818.397C387.379 814.089 393.625 806.137 393.754 796.006C393.884 785.778 387.446 777.554 379.86 772.895C359.82 760.586 335.754 770.513 316.066 778.737C296.267 787.007 273.662 796.713 252.621 788.01C242.91 783.754 235.092 775.329 230.88 764.582C225.785 752.396 225.06 738.569 226.237 725.343C226.931 718.342 228.008 711.395 229.463 704.544C230.3 700.398 224.645 698.628 223.806 702.785L223.806 702.784Z" fill="#3F3D56"/>
<path d="M320.969 836.192C319.167 833.634 317.885 830.662 317.212 827.484C316.539 824.306 316.492 821.001 317.074 817.801C317.656 814.6 318.854 811.583 320.582 808.961C322.31 806.339 324.527 804.176 327.076 802.625L297.256 703.058L321.606 597.544L360.87 617.564L336.641 697.15L354.768 812.995C356.795 817.998 357.124 823.665 355.693 828.924C354.262 834.182 351.171 838.666 347.004 841.525C342.838 844.384 337.887 845.421 333.088 844.438C328.29 843.455 323.977 840.521 320.969 836.192L320.969 836.192Z" fill="#FFB6B6"/>
<path d="M356.911 510.606C356.911 510.606 347.689 505.021 341.275 528.964C336.14 548.133 301.197 652.209 300.567 680.001C297.184 680.793 294.131 682.831 291.888 685.795C289.645 688.759 288.341 692.481 288.18 696.373L338.931 704.294C347.836 695.896 343.373 688.75 339.953 685.35L357.238 652.328L393.367 563.181L363.64 514.51L356.911 510.606Z" fill="#E6E6E6"/>
<path d="M259.766 635.534C253.965 657.379 245.219 678.088 233.835 696.935C231.019 701.567 228.06 706.081 224.957 710.477C222.545 705.534 219.624 700.929 216.255 696.759C204.424 682.092 188.564 672.498 173.174 662.882C157.784 653.266 142.159 642.944 131.286 627.351C126.407 620.332 122.913 612.219 121.039 603.554C118.575 591.799 119.513 579.536 125.595 569.721C134.434 555.452 152.054 550.423 167.033 554.548C182.033 558.672 194.587 570.427 204.326 583.925C201.138 567.339 216.646 551.328 231.645 552.783C246.644 554.261 258.671 569.038 262.66 585.403C266.669 601.745 264.068 619.257 259.766 635.534Z" fill="#37CEC7"/>
<path d="M549.709 28.746C541.761 30.2095 534.16 33.479 527.367 38.356C520.574 43.233 514.73 49.6158 510.19 57.1171C505.589 64.8619 502.524 73.6353 501.203 82.8382C499.882 92.0412 500.338 101.457 502.538 110.444C505.009 120.864 509.703 130.444 516.211 138.348C518.789 141.472 522.93 136.785 520.359 133.67C515.234 127.328 511.36 119.831 508.994 111.676C506.627 103.521 505.821 94.8918 506.63 86.3594C507.501 78.1591 509.909 70.2618 513.695 63.1924C517.481 56.1229 522.557 50.0434 528.588 45.3579C535.345 40.0159 543.109 36.5137 551.269 35.1262C554.989 34.4944 553.408 28.1178 549.709 28.746V28.746Z" fill="#444256"/>
<g opacity="0.2">
<path d="M750.944 133.119C748.269 136.767 745.332 140.161 742.163 143.264C692.942 191.389 652.951 244.144 623.285 300.054L612.588 320.212L611.864 321.602C609.344 319.461 607.145 316.877 605.352 313.949C598.508 302.723 598.469 287.968 600.15 274.47C605.237 233.999 623.493 197.11 651.366 170.982C679.239 144.855 714.734 131.358 750.944 133.119Z" fill="#444256"/>
</g>
<g opacity="0.2">
<path d="M233.836 696.935C231.02 701.567 228.06 706.081 224.957 710.477C222.546 705.534 219.625 700.929 216.255 696.759C204.424 682.092 188.564 672.498 173.174 662.882C157.784 653.266 142.159 642.944 131.286 627.351C126.407 620.332 122.913 612.219 121.039 603.554C155.637 608.963 187.427 627.984 210.799 657.258C220.156 669.142 227.918 682.51 233.836 696.935Z" fill="black"/>
</g>
<path d="M608.812 321.116C613.133 321.116 616.635 317.167 616.635 312.294C616.635 307.422 613.133 303.472 608.812 303.472C604.492 303.472 600.99 307.422 600.99 312.294C600.99 317.167 604.492 321.116 608.812 321.116Z" fill="#3F3D56"/>
</g>
<defs>
<clipPath id="clip0_147_3283">
<rect width="1247" height="1439" fill="white" transform="translate(-243)"/>
</clipPath>
</defs>
</svg>
