<svg width="835" height="227" viewBox="0 0 835 227" fill="none" xmlns="http://www.w3.org/2000/svg">
<path d="M299.992 216V191.5H315.025V195.35H304.052V201.282H312.522V205.132H304.052V216H299.992ZM332.417 216.49C330.119 216.49 328.217 216.041 326.712 215.142C325.219 214.244 324.104 212.978 323.369 211.345C322.634 209.7 322.267 207.763 322.267 205.535V191.5H326.327V204.467C326.327 205.622 326.409 206.696 326.572 207.687C326.735 208.679 327.027 209.548 327.447 210.295C327.879 211.042 328.497 211.625 329.302 212.045C330.107 212.453 331.145 212.657 332.417 212.657C333.7 212.657 334.739 212.453 335.532 212.045C336.337 211.625 336.955 211.042 337.387 210.295C337.819 209.548 338.11 208.679 338.262 207.687C338.425 206.684 338.507 205.611 338.507 204.467V191.5H342.567V205.535C342.567 207.763 342.199 209.7 341.464 211.345C340.729 212.978 339.609 214.244 338.104 215.142C336.611 216.041 334.715 216.49 332.417 216.49ZM351.937 216V191.5H356.05L367.11 208.23V191.5H371.187V216H367.81L355.997 198.272V216H351.937ZM380.849 216V191.5H389.984C392.329 191.5 394.412 191.99 396.232 192.97C398.063 193.938 399.498 195.338 400.537 197.17C401.575 198.99 402.094 201.183 402.094 203.75C402.094 206.317 401.575 208.516 400.537 210.347C399.498 212.167 398.063 213.567 396.232 214.547C394.412 215.516 392.329 216 389.984 216H380.849ZM384.909 212.36H389.984C391.676 212.36 393.088 212.01 394.219 211.31C395.351 210.598 396.203 209.601 396.774 208.317C397.358 207.022 397.649 205.5 397.649 203.75C397.649 202 397.358 200.483 396.774 199.2C396.203 197.905 395.351 196.907 394.219 196.207C393.088 195.496 391.676 195.14 389.984 195.14H384.909V212.36ZM423.25 209.892H412.907V206.305H423.25V209.892ZM417.545 195.472H418.63L411.385 216H407.36L416.092 191.5H420.065L428.815 216H424.772L417.545 195.472ZM446.537 216.49C444.087 216.49 441.923 215.965 440.044 214.915C438.166 213.865 436.696 212.389 435.634 210.487C434.573 208.574 434.042 206.328 434.042 203.75C434.042 201.172 434.584 198.932 435.669 197.03C436.754 195.117 438.248 193.635 440.149 192.585C442.051 191.535 444.227 191.01 446.677 191.01C447.949 191.01 449.133 191.15 450.229 191.43C451.326 191.698 452.277 192.037 453.082 192.445L452.644 196.277C451.758 195.869 450.824 195.531 449.844 195.262C448.864 194.982 447.797 194.842 446.642 194.842C444.845 194.842 443.34 195.233 442.127 196.015C440.925 196.785 440.015 197.847 439.397 199.2C438.79 200.542 438.487 202.058 438.487 203.75C438.487 205.442 438.784 206.964 439.379 208.317C439.986 209.659 440.884 210.721 442.074 211.503C443.276 212.272 444.764 212.657 446.537 212.657C447.727 212.657 448.806 212.529 449.774 212.272C450.754 212.016 451.711 211.666 452.644 211.222L453.082 215.072C452.172 215.492 451.169 215.831 450.072 216.088C448.975 216.356 447.797 216.49 446.537 216.49ZM461.091 216V191.5H465.151V216H461.091ZM485.467 216.49C483.134 216.49 481.057 215.965 479.237 214.915C477.417 213.865 475.988 212.389 474.95 210.487C473.911 208.574 473.392 206.328 473.392 203.75C473.392 201.172 473.911 198.932 474.95 197.03C475.988 195.117 477.417 193.635 479.237 192.585C481.057 191.535 483.134 191.01 485.467 191.01C487.8 191.01 489.877 191.535 491.697 192.585C493.517 193.635 494.946 195.117 495.985 197.03C497.023 198.932 497.542 201.172 497.542 203.75C497.542 206.328 497.023 208.574 495.985 210.487C494.946 212.389 493.517 213.865 491.697 214.915C489.877 215.965 487.8 216.49 485.467 216.49ZM485.467 212.552C487.182 212.552 488.617 212.173 489.772 211.415C490.927 210.645 491.796 209.595 492.38 208.265C492.963 206.935 493.255 205.43 493.255 203.75C493.255 202.07 492.963 200.565 492.38 199.235C491.796 197.905 490.927 196.861 489.772 196.102C488.617 195.332 487.182 194.947 485.467 194.947C483.74 194.947 482.3 195.332 481.145 196.102C479.99 196.861 479.12 197.905 478.537 199.235C477.954 200.565 477.662 202.07 477.662 203.75C477.662 205.43 477.954 206.935 478.537 208.265C479.12 209.595 479.99 210.645 481.145 211.415C482.3 212.173 483.74 212.552 485.467 212.552ZM482.107 189.365V187.09L488.862 183.765V187.335L482.107 189.365ZM505.756 216V191.5H509.868L520.928 208.23V191.5H525.006V216H521.628L509.816 198.272V216H505.756Z" fill="white"/>
<path d="M309.497 148.77C307.92 148.77 306.316 148.633 304.684 148.358C303.053 148.083 301.54 147.743 300.147 147.34C298.772 146.918 297.654 146.497 296.792 146.075L297.589 139.31C298.763 139.878 300.046 140.428 301.439 140.96C302.833 141.473 304.29 141.904 305.812 142.252C307.352 142.582 308.901 142.747 310.459 142.747C312.549 142.747 314.218 142.353 315.464 141.565C316.729 140.758 317.362 139.53 317.362 137.88C317.362 136.615 317.023 135.588 316.344 134.8C315.666 134.012 314.639 133.324 313.264 132.737C311.889 132.132 310.148 131.482 308.039 130.785C305.968 130.107 304.089 129.327 302.402 128.447C300.715 127.549 299.368 126.394 298.359 124.982C297.369 123.571 296.874 121.747 296.874 119.51C296.874 117.42 297.397 115.559 298.442 113.927C299.487 112.296 301.045 111.022 303.117 110.105C305.189 109.188 307.746 108.73 310.789 108.73C313.209 108.73 315.483 108.996 317.609 109.527C319.736 110.059 321.524 110.637 322.972 111.26L322.312 117.86C320.185 116.797 318.169 116.008 316.262 115.495C314.374 114.982 312.43 114.725 310.432 114.725C308.305 114.725 306.619 115.092 305.372 115.825C304.125 116.558 303.502 117.704 303.502 119.262C303.502 120.417 303.823 121.352 304.464 122.067C305.106 122.782 306.023 123.397 307.214 123.91C308.424 124.423 309.9 124.946 311.642 125.477C314.392 126.339 316.72 127.292 318.627 128.337C320.534 129.382 321.973 130.657 322.944 132.16C323.934 133.663 324.429 135.524 324.429 137.742C324.429 139.026 324.209 140.327 323.769 141.647C323.329 142.949 322.55 144.141 321.432 145.222C320.332 146.286 318.81 147.147 316.867 147.807C314.924 148.449 312.467 148.77 309.497 148.77ZM353.665 148.77C349.998 148.77 346.735 147.945 343.875 146.295C341.015 144.645 338.769 142.326 337.137 139.337C335.506 136.331 334.69 132.802 334.69 128.75C334.69 124.698 335.506 121.178 337.137 118.19C338.769 115.183 341.015 112.855 343.875 111.205C346.735 109.555 349.998 108.73 353.665 108.73C357.332 108.73 360.595 109.555 363.455 111.205C366.315 112.855 368.561 115.183 370.192 118.19C371.824 121.178 372.64 124.698 372.64 128.75C372.64 132.802 371.824 136.331 370.192 139.337C368.561 142.326 366.315 144.645 363.455 146.295C360.595 147.945 357.332 148.77 353.665 148.77ZM353.665 142.582C356.36 142.582 358.615 141.987 360.43 140.795C362.245 139.585 363.611 137.935 364.527 135.845C365.444 133.755 365.902 131.39 365.902 128.75C365.902 126.11 365.444 123.745 364.527 121.655C363.611 119.565 362.245 117.924 360.43 116.732C358.615 115.522 356.36 114.917 353.665 114.917C350.952 114.917 348.687 115.522 346.872 116.732C345.057 117.924 343.692 119.565 342.775 121.655C341.858 123.745 341.4 126.11 341.4 128.75C341.4 131.39 341.858 133.755 342.775 135.845C343.692 137.935 345.057 139.585 346.872 140.795C348.687 141.987 350.952 142.582 353.665 142.582ZM392.869 148V132.022L379.312 109.5H386.379L397.517 128.722H394.547L405.712 109.5H412.779L399.249 132.022V148H392.869ZM442.145 148V109.5H448.525V142.28H465.025V148H442.145ZM491.111 148.77C487.499 148.77 484.511 148.064 482.146 146.652C479.799 145.241 478.048 143.252 476.893 140.685C475.738 138.1 475.161 135.057 475.161 131.555V109.5H481.541V129.877C481.541 131.692 481.669 133.379 481.926 134.937C482.182 136.496 482.641 137.862 483.301 139.035C483.979 140.208 484.951 141.125 486.216 141.785C487.481 142.427 489.112 142.747 491.111 142.747C493.127 142.747 494.759 142.427 496.006 141.785C497.271 141.125 498.242 140.208 498.921 139.035C499.599 137.862 500.057 136.496 500.296 134.937C500.552 133.361 500.681 131.674 500.681 129.877V109.5H507.061V131.555C507.061 135.057 506.483 138.1 505.328 140.685C504.173 143.252 502.413 145.241 500.048 146.652C497.702 148.064 494.722 148.77 491.111 148.77ZM517.856 148L538.398 113.102L539.526 115.22H520.331V109.5H547.171L526.573 144.397L525.473 142.28H546.896V148H517.856ZM577.417 148V109.5H591.772C595.457 109.5 598.73 110.27 601.59 111.81C604.468 113.332 606.723 115.532 608.355 118.41C609.986 121.27 610.802 124.717 610.802 128.75C610.802 132.783 609.986 136.239 608.355 139.117C606.723 141.977 604.468 144.177 601.59 145.717C598.73 147.239 595.457 148 591.772 148H577.417ZM583.797 142.28H591.772C594.431 142.28 596.649 141.73 598.427 140.63C600.206 139.512 601.544 137.944 602.442 135.927C603.359 133.892 603.817 131.5 603.817 128.75C603.817 126 603.359 123.617 602.442 121.6C601.544 119.565 600.206 117.997 598.427 116.897C596.649 115.779 594.431 115.22 591.772 115.22H583.797V142.28ZM623.763 148V109.5H647.991V115.55H630.253V124.872H644.141V130.922H630.253V141.95H648.513V148H623.763ZM689.823 148L676.101 109.5H682.618L693.673 140.96H692.188L703.298 109.5H709.816L696.066 148H689.823ZM720.746 148V109.5H727.126V148H720.746ZM742.331 148V109.5H756.686C760.371 109.5 763.644 110.27 766.504 111.81C769.382 113.332 771.637 115.532 773.269 118.41C774.901 121.27 775.716 124.717 775.716 128.75C775.716 132.783 774.901 136.239 773.269 139.117C771.637 141.977 769.382 144.177 766.504 145.717C763.644 147.239 760.371 148 756.686 148H742.331ZM748.711 142.28H756.686C759.345 142.28 761.563 141.73 763.341 140.63C765.12 139.512 766.458 137.944 767.356 135.927C768.273 133.892 768.731 131.5 768.731 128.75C768.731 126 768.273 123.617 767.356 121.6C766.458 119.565 765.12 117.997 763.341 116.897C761.563 115.779 759.345 115.22 756.686 115.22H748.711V142.28ZM808.96 138.402H792.708V132.765H808.96V138.402ZM799.995 115.742H801.7L790.315 148H783.99L797.713 109.5H803.955L817.705 148H811.353L799.995 115.742Z" fill="white"/>
<path d="M207.561 1.61619C299.224 74.3939 193.039 179.752 130.569 224.063C121.418 223.86 161.552 204.453 154.088 133.09C148.117 75.9992 173.168 68.5082 186.439 71.899C182.947 74.4012 176.953 85.8392 180.921 111.574C184.889 137.309 181.649 161.336 179.533 170.133C190.639 165.072 188.136 129.052 185.496 111.675C191.032 119.536 244.08 73.1741 218.083 40.5404C197.286 14.4334 202.403 3.71302 207.561 1.61619Z" fill="#37CEC7" stroke="#37CEC7"/>
<path d="M202.287 64.9335C192.956 53.9967 188.469 38.4405 187.392 32.0295C179.724 44.3148 190.306 64.6684 193.902 68.5803C196.778 71.7097 200.297 84.0509 201.696 89.8303C206.374 79.2034 204.039 68.8045 202.287 64.9335Z" fill="#37CEC7" stroke="#37CEC7"/>
<path d="M214.259 49.2056C202.656 36.5677 197.055 18.6089 195.704 11.2092C186.213 25.3704 199.389 48.8767 203.86 53.3975C207.436 57.0141 211.829 71.2613 213.578 77.9328C219.362 65.6795 216.442 53.6758 214.259 49.2056Z" fill="#37CEC7" stroke="#37CEC7"/>
<path d="M26.9576 137.647C12.1669 119.623 1.70232 99.976 0.211561 77.518C-1.54228 51.5019 7.46076 29.3533 32.7453 13.8828C61.1574 -3.52144 90.3296 -1.40714 119.589 11.7428C134 18.2146 146.248 27.3679 157.56 37.5011C163.085 42.4516 166.475 45.7004 154.695 47.6085C135.725 50.6768 123.536 62.4601 113.159 75.8163C103.396 88.3731 90.4465 96.6756 73.5512 100.234C52.8267 104.591 34.8791 98.4547 25.9638 83.7578C17.0484 69.1124 21.0822 54.5186 37.1591 41.214C53.9959 27.2906 74.3989 24.248 96.848 25.7951C71.242 11.356 29.676 25.331 17.3699 51.6308C6.84692 74.1661 14.213 94.4066 26.4314 114.183C29.8807 119.778 34.0314 125.038 37.8899 130.453C39.6437 139.245 35.1714 140.663 26.9576 137.647Z" fill="#9FDB5F"/>
<path d="M111.96 181.145C118.04 185.347 118.116 185.786 124.634 189.421C136.786 195.115 134.614 208.178 130.288 214.572C124.5 223.184 125.294 220.267 115.994 211.879C106.752 203.544 95.6188 196.224 84.5709 189.421C81.4725 183.439 86.5586 182.021 91.1478 181.041C97.9878 179.572 105.032 178.515 111.96 181.145Z" fill="#E5D54F"/>
<path d="M112.764 181.672C106.35 182.823 97.4197 183.588 90.5996 182.938C86.3334 182.512 84.9017 185.137 84.4083 189.265C72.0353 181.235 60.9264 172.829 51.4363 163.324C55.6154 157.271 62.6806 155.489 70.3714 158.516C74.0862 160.742 77.801 162.993 82.2703 165.694C82.2703 161.967 81.1111 158.516 82.2703 155.099C85.0564 153.048 87.8135 153.938 90.5996 156.014C96.462 165.019 104.812 173.968 112.764 181.672Z" fill="#D0D755"/>
<path d="M69.9006 158.263C63.996 160.016 58.0885 161.832 52.1839 163.586C41.6901 156.521 34.2655 147.135 26.9871 137.647C32.8916 137.93 37.3347 136.486 37.9193 130.479C48.5593 139.761 59.2022 148.954 69.9006 158.263Z" fill="#B9DA5D"/>
<path d="M90.271 155.747C87.4649 155.747 85.2362 160.071 82.43 160.071C78.747 148.159 80.0987 132.644 87.5233 122.176C90.3587 121.686 91.7033 122.588 91.1479 125.218C85.8572 135.3 87.3187 145.51 90.271 155.747Z" fill="#BADC68"/>
<path d="M91.148 125.244C89.9496 124.238 88.7219 123.207 87.5234 122.201C94.0711 112.248 104.477 108.329 117.426 108.071C107.488 112.532 98.3095 117.74 91.148 125.244Z" fill="#C8EAA4"/>
</svg>
